<svg xmlns="http://www.w3.org/2000/svg" viewBox="0 0 400 400">
  <defs>
    <radialGradient id="ink" cx="50%" cy="50%" r="75%">
      <stop offset="0%" stop-color="#1c1917"/>
      <stop offset="100%" stop-color="#0c0a09"/>
    </radialGradient>
  </defs>
  <rect width="400" height="400" fill="url(#ink)"/>
  <!-- ancient coin: circle with square hole -->
  <circle cx="200" cy="200" r="152" fill="none" stroke="#a16207" stroke-width="12" opacity="0.3"/>
  <rect x="168" y="168" width="64" height="64" fill="none" stroke="#a16207" stroke-width="9" opacity="0.3"/>
  <!-- hexagram 63, After Completion: from top - broken, solid, broken, solid, broken, solid -->
  <g fill="#fafaf9">
    <rect x="110" y="74"  width="76" height="15" rx="3"/>
    <rect x="214" y="74"  width="76" height="15" rx="3"/>
    <rect x="110" y="118" width="180" height="15" rx="3"/>
    <rect x="110" y="162" width="76" height="15" rx="3"/>
    <rect x="214" y="162" width="76" height="15" rx="3"/>
    <rect x="110" y="206" width="180" height="15" rx="3"/>
    <rect x="110" y="250" width="76" height="15" rx="3"/>
    <rect x="214" y="250" width="76" height="15" rx="3"/>
    <rect x="110" y="294" width="180" height="15" rx="3"/>
  </g>
  <!-- moving line mark on the bottom line -->
  <g stroke="#eab308" stroke-width="5" stroke-linecap="round">
    <path d="M188 288L212 315"/>
    <path d="M212 288L188 315"/>
  </g>
</svg>
